<svg id="Calque_2" data-name="Calque 2" xmlns="http://www.w3.org/2000/svg" viewBox="0 0 1080 1080"><defs><style>.cls-1{fill:#fff;}</style></defs><path class="cls-1" d="M1007.06,0H72.94A72.93,72.93,0,0,0,0,72.94v934.12A72.93,72.93,0,0,0,72.94,1080H549.85V614.19h-96V453.85h96V337.43c-.5-10.81-2.74-87.44,58.65-143.93,54.74-50.38,120.66-48.46,133.14-47.86H887.89V305.77H796.5c-17.64-3.48-35.31,3.1-45,16.73-10.61,14.92-7,31.8-6.37,34.63V452.5H887.5l-16,160.32H741.85V1080h265.21a72.93,72.93,0,0,0,72.94-72.94V72.94A72.93,72.93,0,0,0,1007.06,0Z"/></svg>