<svg id="Calque_2" data-name="Calque 2" xmlns="http://www.w3.org/2000/svg" viewBox="0 0 1080 1080"><defs><style>.cls-1{fill:#fff;}</style></defs><path class="cls-1" d="M991.42,0H88.08A88.07,88.07,0,0,0,0,88.08V991.42a88.07,88.07,0,0,0,88.08,88.08H991.42a88.07,88.07,0,0,0,88.08-88.08V88.08A88.07,88.07,0,0,0,991.42,0ZM321.85,918.57H161.92V403.81H321.85ZM242.39,336.84a92.46,92.46,0,1,1,92.45-92.45A92.46,92.46,0,0,1,242.39,336.84ZM915.58,599.72V918.07H758.85V637.7c3.76-55.1-34.33-100.43-77.17-106-47.43-6.11-100.18,36.66-102.45,97.59V918.07H420.81V405.81H572.73v72c9.58-13.56,50.71-68.52,125.95-83,5-1,105.91-18.77,165.92,46,30.64,33.05,40.22,76.42,45,97.95A258.71,258.71,0,0,1,915.58,599.72Z"/></svg>