<svg id="Calque_2" data-name="Calque 2" xmlns="http://www.w3.org/2000/svg" viewBox="0 0 1080 1080"><defs><style>.cls-1{fill:#fff;}</style></defs><path class="cls-1" d="M.38,877.3A459.4,459.4,0,0,0,326.6,784.85c-19.33-.73-76-5.36-129.43-47.55-49.57-39.12-67.95-88.11-74-107A217.29,217.29,0,0,0,218.3,625c-18.62-4.59-87.08-23.84-134.71-91.13-37.85-53.46-41.84-108-42.27-129.43A175,175,0,0,0,143,432.22c-13.1-8.8-73.55-51.4-92.45-134.72C31.71,214.39,67.63,150,75.66,136.37A595.84,595.84,0,0,0,265.85,297.5a597,597,0,0,0,267.44,70.1C513.4,256.63,573,149,670,111.28c81.1-31.58,176.67-9.78,241.69,55.47a589.68,589.68,0,0,0,80.57-26.41A590.26,590.26,0,0,0,1053,111.28a192.9,192.9,0,0,1-95.09,121.51,388.4,388.4,0,0,0,60.75-10.57,388.43,388.43,0,0,0,60.75-21.13A304.59,304.59,0,0,1,972.43,312c1,21.79,10.5,361.13-268.1,554.7C498.64,1009.65,220.79,1014.14.38,877.3Z"/></svg>